<svg width="448" height="79" viewBox="0 0 448 79" fill="none" xmlns="http://www.w3.org/2000/svg">
<g clip-path="url(#clip0_1_67)">
<path d="M113 70.0457V7H124.414V33.6898H153.609V7H165.053V70.0457H153.609V43.2636H124.414V70.0457H113Z" fill="white"/>
<path d="M190.572 71C187.578 71 184.881 70.4664 182.481 69.3992C180.102 68.3115 178.215 66.7108 176.821 64.5969C175.446 62.4831 174.759 59.8767 174.759 56.7778C174.759 54.1098 175.252 51.9036 176.236 50.1592C177.22 48.4148 178.564 47.0192 180.266 45.9726C181.968 44.9259 183.886 44.1358 186.019 43.6022C188.173 43.0481 190.398 42.6479 192.695 42.4016C195.464 42.1143 197.709 41.8578 199.432 41.632C201.155 41.3858 202.406 41.0164 203.186 40.5238C203.985 40.0107 204.385 39.2206 204.385 38.1534V37.9687C204.385 35.6497 203.698 33.8539 202.324 32.5815C200.95 31.3091 198.971 30.6729 196.387 30.6729C193.659 30.6729 191.495 31.2681 189.895 32.4584C188.316 33.6487 187.25 35.0545 186.696 36.6758L176.298 35.1982C177.118 32.325 178.472 29.9238 180.358 27.9947C182.245 26.0451 184.553 24.5879 187.28 23.6234C190.008 22.6383 193.023 22.1457 196.325 22.1457C198.602 22.1457 200.868 22.4125 203.124 22.9461C205.38 23.4797 207.441 24.3622 209.308 25.5936C211.174 26.8044 212.671 28.4565 213.799 30.5498C214.948 32.6431 215.522 35.2597 215.522 38.3997V70.0457H204.816V63.5503H204.447C203.77 64.8637 202.816 66.0951 201.586 67.2444C200.376 68.3731 198.848 69.2864 197.002 69.9841C195.177 70.6614 193.033 71 190.572 71ZM193.464 62.8115C195.7 62.8115 197.638 62.3702 199.278 61.4877C200.919 60.5847 202.181 59.3944 203.062 57.9168C203.965 56.4392 204.416 54.8281 204.416 53.0837V47.5118C204.067 47.7991 203.473 48.0659 202.632 48.3122C201.811 48.5584 200.888 48.7739 199.863 48.9586C198.837 49.1433 197.822 49.3075 196.817 49.4512C195.812 49.5948 194.941 49.718 194.202 49.8206C192.541 50.0463 191.054 50.4157 189.742 50.9288C188.429 51.4419 187.393 52.1602 186.634 53.0837C185.875 53.9867 185.496 55.1565 185.496 56.5931C185.496 58.6453 186.245 60.1948 187.742 61.2415C189.239 62.2881 191.146 62.8115 193.464 62.8115Z" fill="white"/>
<path d="M226.72 70.0457V22.7614H237.518V30.6421H238.011C238.872 27.9126 240.349 25.809 242.441 24.3314C244.553 22.8333 246.963 22.0842 249.67 22.0842C250.286 22.0842 250.973 22.115 251.732 22.1765C252.511 22.2176 253.157 22.2894 253.67 22.392V32.6431C253.198 32.4789 252.449 32.3353 251.424 32.2121C250.419 32.0685 249.445 31.9966 248.501 31.9966C246.471 31.9966 244.646 32.4379 243.025 33.3203C241.426 34.1823 240.164 35.3829 239.241 36.9221C238.318 38.4613 237.857 40.2365 237.857 42.2477V70.0457H226.72Z" fill="white"/>
<path d="M261.561 70.0457V7H272.697V30.5806H273.159C273.733 29.4313 274.543 28.2102 275.589 26.9173C276.635 25.6038 278.05 24.4853 279.835 23.5618C281.619 22.6178 283.896 22.1457 286.664 22.1457C290.315 22.1457 293.607 23.0795 296.54 24.9471C299.493 26.7941 301.831 29.5339 303.554 33.1664C305.297 36.7784 306.169 41.2113 306.169 46.4651C306.169 51.6574 305.318 56.0698 303.616 59.7023C301.913 63.3348 299.596 66.1053 296.663 68.014C293.73 69.9226 290.407 70.8769 286.695 70.8769C283.988 70.8769 281.742 70.4254 279.958 69.5224C278.173 68.6194 276.738 67.5317 275.651 66.2593C274.584 64.9663 273.754 63.7452 273.159 62.596H272.513V70.0457H261.561ZM272.482 46.4036C272.482 49.4614 272.913 52.1397 273.774 54.4382C274.656 56.7367 275.917 58.5325 277.558 59.8254C279.219 61.0978 281.229 61.734 283.588 61.734C286.049 61.734 288.11 61.0773 289.772 59.7638C291.433 58.4299 292.684 56.6136 293.525 54.3151C294.386 51.996 294.817 49.3588 294.817 46.4036C294.817 43.4688 294.396 40.8624 293.556 38.5844C292.715 36.3064 291.464 34.5209 289.802 33.228C288.141 31.9351 286.07 31.2886 283.588 31.2886C281.209 31.2886 279.189 31.9145 277.527 33.1664C275.866 34.4183 274.605 36.173 273.743 38.4305C272.903 40.688 272.482 43.3457 272.482 46.4036Z" fill="white"/>
<path d="M336.249 70.9692C331.634 70.9692 327.635 69.9534 324.251 67.9216C320.867 65.8899 318.241 63.0475 316.375 59.3944C314.529 55.7414 313.606 51.4727 313.606 46.5883C313.606 41.7039 314.529 37.4249 316.375 33.7513C318.241 30.0778 320.867 27.2251 324.251 25.1934C327.635 23.1616 331.634 22.1457 336.249 22.1457C340.863 22.1457 344.863 23.1616 348.247 25.1934C351.631 27.2251 354.246 30.0778 356.092 33.7513C357.958 37.4249 358.891 41.7039 358.891 46.5883C358.891 51.4727 357.958 55.7414 356.092 59.3944C354.246 63.0475 351.631 65.8899 348.247 67.9216C344.863 69.9534 340.863 70.9692 336.249 70.9692ZM336.31 62.0419C338.812 62.0419 340.904 61.3543 342.586 59.9793C344.268 58.5838 345.519 56.7162 346.339 54.3766C347.18 52.037 347.601 49.4307 347.601 46.5575C347.601 43.6638 347.18 41.0471 346.339 38.7076C345.519 36.3474 344.268 34.4696 342.586 33.0741C340.904 31.6785 338.812 30.9808 336.31 30.9808C333.747 30.9808 331.614 31.6785 329.911 33.0741C328.23 34.4696 326.968 36.3474 326.127 38.7076C325.307 41.0471 324.897 43.6638 324.897 46.5575C324.897 49.4307 325.307 52.037 326.127 54.3766C326.968 56.7162 328.23 58.5838 329.911 59.9793C331.614 61.3543 333.747 62.0419 336.31 62.0419Z" fill="white"/>
<path d="M398.462 50.1592V22.7614H409.598V70.0457H398.8V61.6417H398.308C397.241 64.2891 395.488 66.4542 393.047 68.1371C390.627 69.82 387.643 70.6614 384.095 70.6614C380.998 70.6614 378.26 69.9739 375.881 68.5989C373.522 67.2033 371.676 65.1818 370.343 62.5344C369.01 59.8664 368.344 56.6444 368.344 52.8682V22.7614H379.48V51.1443C379.48 54.1406 380.301 56.5213 381.941 58.2862C383.582 60.0512 385.736 60.9336 388.402 60.9336C390.043 60.9336 391.632 60.5334 393.17 59.733C394.709 58.9327 395.97 57.7423 396.954 56.1621C397.959 54.5613 398.462 52.5604 398.462 50.1592Z" fill="white"/>
<path d="M421.05 70.0457V22.7614H431.849V30.6421H432.341C433.202 27.9126 434.679 25.809 436.771 24.3314C438.884 22.8333 441.293 22.0842 444.001 22.0842C444.616 22.0842 445.303 22.115 446.062 22.1765C446.841 22.2176 447.487 22.2894 448 22.392V32.6431C447.528 32.4789 446.78 32.3353 445.754 32.2121C444.749 32.0685 443.775 31.9966 442.832 31.9966C440.801 31.9966 438.976 32.4379 437.356 33.3203C435.756 34.1823 434.494 35.3829 433.572 36.9221C432.649 38.4613 432.187 40.2365 432.187 42.2477V70.0457H421.05Z" fill="white"/>
<path fill-rule="evenodd" clip-rule="evenodd" d="M19.75 0H0V39.5C0 61.3151 17.6847 79 39.5 79C61.3151 79 79 61.3151 79 39.5V0H59.25C48.3425 0 39.5 8.84239 39.5 19.75C39.5 8.84239 30.6576 0 19.75 0Z" fill="url(#paint0_linear_1_67)"/>
</g>
<defs>
<linearGradient id="paint0_linear_1_67" x1="39.5" y1="0" x2="39.5" y2="79" gradientUnits="userSpaceOnUse">
<stop stop-color="#9479CE"/>
<stop offset="1" stop-color="#A479CE"/>
</linearGradient>
<clipPath id="clip0_1_67">
<rect width="448" height="79" fill="white"/>
</clipPath>
</defs>
</svg>
